<svg width="40" height="31" viewBox="0 0 40 31" fill="none" xmlns="http://www.w3.org/2000/svg">
<g id="discord 1">
<path id="Vector" d="M32.7832 4.22839C32.773 4.20921 32.756 4.19419 32.7354 4.18601C30.3527 3.12696 27.8383 2.37177 25.2551 1.93935C25.2316 1.93513 25.2073 1.93817 25.1858 1.94807C25.1642 1.95796 25.1464 1.97419 25.1349 1.99445C24.7925 2.59646 24.4817 3.21483 24.2036 3.84718C21.419 3.4377 18.5866 3.4377 15.802 3.84718C15.5221 3.21322 15.2063 2.5947 14.8561 1.99445C14.844 1.97463 14.8261 1.95877 14.8047 1.94894C14.7832 1.93912 14.7592 1.93577 14.7358 1.93935C12.1523 2.37087 9.63769 3.12611 7.2553 4.18607C7.23491 4.19444 7.2177 4.20874 7.20605 4.227C2.44174 11.1195 1.13662 17.8426 1.77687 24.4824C1.77867 24.4987 1.78383 24.5144 1.79204 24.5287C1.80026 24.543 1.81135 24.5556 1.82468 24.5657C4.59889 26.5556 7.70189 28.0745 11.0012 29.0576C11.0245 29.0643 11.0493 29.064 11.0723 29.0567C11.0954 29.0494 11.1156 29.0354 11.1302 29.0166C11.8388 28.0826 12.4667 27.0935 13.0075 26.0594C13.0149 26.0452 13.0192 26.0297 13.0199 26.0138C13.0207 25.9979 13.018 25.982 13.012 25.9672C13.006 25.9524 12.9968 25.939 12.985 25.9279C12.9733 25.9168 12.9592 25.9082 12.9438 25.9027C11.9537 25.5357 10.9951 25.0933 10.0771 24.5796C10.0604 24.5701 10.0464 24.5568 10.0363 24.5408C10.0262 24.5248 10.0203 24.5066 10.0192 24.4879C10.018 24.4692 10.0216 24.4505 10.0297 24.4335C10.0378 24.4165 10.0501 24.4017 10.0655 24.3903C10.2581 24.2505 10.4509 24.1051 10.6348 23.9582C10.6511 23.9452 10.6709 23.9368 10.6919 23.9341C10.7129 23.9313 10.7342 23.9343 10.7536 23.9427C16.7679 26.6017 23.2792 26.6017 29.2223 23.9427C29.2417 23.9338 29.2632 23.9304 29.2845 23.9329C29.3058 23.9354 29.3259 23.9437 29.3425 23.9568C29.5265 24.1037 29.7192 24.2505 29.9133 24.3903C29.9288 24.4015 29.9412 24.4163 29.9494 24.4332C29.9576 24.4502 29.9614 24.4689 29.9604 24.4876C29.9594 24.5063 29.9536 24.5245 29.9437 24.5405C29.9337 24.5566 29.9198 24.57 29.9032 24.5796C28.9872 25.0976 28.0278 25.5397 27.035 25.9013C27.0196 25.907 27.0056 25.9158 26.994 25.9271C26.9823 25.9384 26.9732 25.9519 26.9673 25.9668C26.9614 25.9817 26.9588 25.9977 26.9597 26.0137C26.9606 26.0296 26.965 26.0452 26.9725 26.0594C27.5224 27.0877 28.1494 28.0756 28.8484 29.015C28.8626 29.0343 28.8827 29.0487 28.9058 29.0563C28.929 29.064 28.954 29.0643 28.9774 29.0574C32.2826 28.0776 35.391 26.5586 38.1687 24.5657C38.1823 24.5561 38.1935 24.5438 38.2018 24.5297C38.21 24.5156 38.2151 24.5 38.2166 24.4838C38.9831 16.8075 36.9333 10.1395 32.7832 4.22839ZM13.9057 20.4394C12.0949 20.4394 10.6029 18.8297 10.6029 16.8527C10.6029 14.8757 12.066 13.2659 13.9057 13.2659C15.7597 13.2659 17.2373 14.8897 17.2084 16.8526C17.2084 18.8297 15.7452 20.4394 13.9057 20.4394ZM26.1169 20.4394C24.3062 20.4394 22.8142 18.8297 22.8142 16.8527C22.8142 14.8757 24.2773 13.2659 26.1169 13.2659C27.9711 13.2659 29.4486 14.8897 29.4197 16.8526C29.4197 18.8297 27.9711 20.4394 26.1169 20.4394Z" fill="url(#paint0_linear_6_53)"/>
</g>
<defs>
<linearGradient id="paint0_linear_6_53" x1="19.9999" y1="1.9375" x2="19.9999" y2="29.0624" gradientUnits="userSpaceOnUse">
<stop stop-color="#3A9B8D"/>
<stop offset="1" stop-color="#434395"/>
</linearGradient>
</defs>
</svg>
