<svg width="28" height="31" viewBox="0 0 28 31" fill="none" xmlns="http://www.w3.org/2000/svg">
<g id="square-facebook 1" clip-path="url(#clip0_6_63)">
<path id="Vector" d="M25 1.9375H3C2.20435 1.9375 1.44129 2.24369 0.87868 2.78872C0.31607 3.33375 0 4.07296 0 4.84375L0 26.1562C0 26.927 0.31607 27.6663 0.87868 28.2113C1.44129 28.7563 2.20435 29.0625 3 29.0625H11.5781V19.8406H7.64062V15.5H11.5781V12.1917C11.5781 8.42873 13.8906 6.35016 17.4325 6.35016C19.1287 6.35016 20.9025 6.6432 20.9025 6.6432V10.3366H18.9481C17.0225 10.3366 16.4219 11.4942 16.4219 12.6815V15.5H20.7206L20.0331 19.8406H16.4219V29.0625H25C25.7956 29.0625 26.5587 28.7563 27.1213 28.2113C27.6839 27.6663 28 26.927 28 26.1562V4.84375C28 4.07296 27.6839 3.33375 27.1213 2.78872C26.5587 2.24369 25.7956 1.9375 25 1.9375Z" fill="url(#paint0_linear_6_63)"/>
</g>
<defs>
<linearGradient id="paint0_linear_6_63" x1="14" y1="1.9375" x2="14" y2="29.0625" gradientUnits="userSpaceOnUse">
<stop stop-color="#3A9B8D"/>
<stop offset="1" stop-color="#434395"/>
</linearGradient>
<clipPath id="clip0_6_63">
<rect width="28" height="31" fill="white"/>
</clipPath>
</defs>
</svg>
