<svg width="32" height="31" viewBox="0 0 32 31" fill="none" xmlns="http://www.w3.org/2000/svg">
<g id="github 1" clip-path="url(#clip0_6_57)">
<path id="Vector" d="M11.1687 24.0613C11.1687 24.1824 11.025 24.2793 10.8437 24.2793C10.6375 24.2975 10.4937 24.2006 10.4937 24.0613C10.4937 23.9402 10.6375 23.8434 10.8187 23.8434C11.0062 23.8252 11.1687 23.9221 11.1687 24.0613ZM9.22499 23.7889C9.18124 23.91 9.30624 24.0492 9.49374 24.0855C9.65624 24.1461 9.84374 24.0855 9.88124 23.9645C9.91874 23.8434 9.79999 23.7041 9.61249 23.6496C9.44999 23.6072 9.26874 23.6678 9.22499 23.7889ZM11.9875 23.6859C11.8062 23.7283 11.6812 23.8434 11.7 23.9826C11.7187 24.1037 11.8812 24.1824 12.0687 24.14C12.25 24.0977 12.375 23.9826 12.3562 23.8615C12.3375 23.7465 12.1687 23.6678 11.9875 23.6859ZM16.1 0.484375C7.43124 0.484375 0.799988 6.85996 0.799988 15.2578C0.799988 21.9725 5.16249 27.7184 11.3937 29.7406C12.1937 29.8799 12.475 29.4016 12.475 29.008C12.475 28.6326 12.4562 26.5619 12.4562 25.2904C12.4562 25.2904 8.08124 26.1986 7.16249 23.4861C7.16249 23.4861 6.44999 21.7242 5.42499 21.2701C5.42499 21.2701 3.99374 20.3195 5.52499 20.3377C5.52499 20.3377 7.08124 20.4588 7.93749 21.8998C9.30624 24.2369 11.6 23.5648 12.4937 23.1652C12.6375 22.1965 13.0437 21.5244 13.4937 21.1248C9.99999 20.7494 6.47499 20.259 6.47499 14.4344C6.47499 12.7693 6.94999 11.9338 7.94999 10.8682C7.78749 10.4746 7.25624 8.85195 8.11249 6.75703C9.41874 6.36348 12.425 8.3918 12.425 8.3918C13.675 8.05273 15.0187 7.87715 16.35 7.87715C17.6812 7.87715 19.025 8.05273 20.275 8.3918C20.275 8.3918 23.2812 6.35742 24.5875 6.75703C25.4437 8.85801 24.9125 10.4746 24.75 10.8682C25.75 11.9398 26.3625 12.7754 26.3625 14.4344C26.3625 20.2771 22.6812 20.7434 19.1875 21.1248C19.7625 21.6031 20.25 22.5113 20.25 23.9342C20.25 25.9746 20.2312 28.4994 20.2312 28.9959C20.2312 29.3895 20.5187 29.8678 21.3125 29.7285C27.5625 27.7184 31.8 21.9725 31.8 15.2578C31.8 6.85996 24.7687 0.484375 16.1 0.484375ZM6.87499 21.367C6.79374 21.4275 6.81249 21.5668 6.91874 21.6818C7.01874 21.7787 7.16249 21.8211 7.24374 21.7424C7.32499 21.6818 7.30624 21.5426 7.19999 21.4275C7.09999 21.3307 6.95624 21.2883 6.87499 21.367ZM6.19999 20.8766C6.15624 20.9553 6.21874 21.0521 6.34374 21.1127C6.44374 21.1732 6.56874 21.1551 6.61249 21.0703C6.65624 20.9916 6.59374 20.8947 6.46874 20.8342C6.34374 20.7979 6.24374 20.816 6.19999 20.8766ZM8.22499 23.032C8.12499 23.1107 8.16249 23.2924 8.30624 23.4074C8.44999 23.5467 8.63124 23.5648 8.71249 23.468C8.79374 23.3893 8.75624 23.2076 8.63124 23.0926C8.49374 22.9533 8.30624 22.9352 8.22499 23.032ZM7.51249 22.142C7.41249 22.2025 7.41249 22.36 7.51249 22.4992C7.61249 22.6385 7.78124 22.699 7.86249 22.6385C7.96249 22.5598 7.96249 22.4023 7.86249 22.2631C7.77499 22.1238 7.61249 22.0633 7.51249 22.142Z" fill="url(#paint0_linear_6_57)"/>
</g>
<defs>
<linearGradient id="paint0_linear_6_57" x1="16.3" y1="0.484375" x2="16.3" y2="29.7653" gradientUnits="userSpaceOnUse">
<stop stop-color="#3A9B8D"/>
<stop offset="1" stop-color="#434395"/>
</linearGradient>
<clipPath id="clip0_6_57">
<rect width="31" height="31" fill="white" transform="translate(0.799988)"/>
</clipPath>
</defs>
</svg>
