<svg width="29" height="31" viewBox="0 0 29 31" fill="none" xmlns="http://www.w3.org/2000/svg">
<g id="instagram 1" clip-path="url(#clip0_6_59)">
<path id="Vector" d="M14.2063 8.53721C10.2313 8.53721 7.025 11.6433 7.025 15.494C7.025 19.3448 10.2313 22.4509 14.2063 22.4509C18.1812 22.4509 21.3875 19.3448 21.3875 15.494C21.3875 11.6433 18.1812 8.53721 14.2063 8.53721ZM14.2063 20.0169C11.6375 20.0169 9.5375 17.9886 9.5375 15.494C9.5375 12.9995 11.6313 10.9712 14.2063 10.9712C16.7812 10.9712 18.875 12.9995 18.875 15.494C18.875 17.9886 16.775 20.0169 14.2063 20.0169ZM23.3563 8.25264C23.3563 9.15479 22.6063 9.87529 21.6813 9.87529C20.75 9.87529 20.0063 9.14873 20.0063 8.25264C20.0063 7.35654 20.7563 6.62998 21.6813 6.62998C22.6063 6.62998 23.3563 7.35654 23.3563 8.25264ZM28.1125 9.89951C28.0063 7.72588 27.4937 5.80049 25.85 4.21416C24.2125 2.62783 22.225 2.13135 19.9813 2.02236C17.6688 1.89521 10.7375 1.89521 8.425 2.02236C6.1875 2.12529 4.2 2.62178 2.55625 4.20811C0.9125 5.79443 0.40625 7.71982 0.29375 9.89346C0.1625 12.1337 0.1625 18.8483 0.29375 21.0886C0.4 23.2622 0.9125 25.1876 2.55625 26.7739C4.2 28.3603 6.18125 28.8567 8.425 28.9657C10.7375 29.0929 17.6688 29.0929 19.9813 28.9657C22.225 28.8628 24.2125 28.3663 25.85 26.7739C27.4875 25.1876 28 23.2622 28.1125 21.0886C28.2438 18.8483 28.2438 12.1397 28.1125 9.89951ZM25.125 23.4923C24.6375 24.679 23.6938 25.5933 22.4625 26.0716C20.6188 26.78 16.2437 26.6165 14.2063 26.6165C12.1688 26.6165 7.7875 26.7739 5.95 26.0716C4.725 25.5993 3.78125 24.6851 3.2875 23.4923C2.55625 21.7062 2.725 17.4679 2.725 15.494C2.725 13.5202 2.5625 9.27588 3.2875 7.4958C3.775 6.30908 4.71875 5.39482 5.95 4.9165C7.79375 4.20811 12.1688 4.37158 14.2063 4.37158C16.2437 4.37158 20.625 4.21416 22.4625 4.9165C23.6875 5.38877 24.6313 6.30303 25.125 7.4958C25.8563 9.28193 25.6875 13.5202 25.6875 15.494C25.6875 17.4679 25.8563 21.7122 25.125 23.4923Z" fill="url(#paint0_linear_6_59)"/>
</g>
<defs>
<linearGradient id="paint0_linear_6_59" x1="14.2031" y1="1.927" x2="14.2031" y2="29.0611" gradientUnits="userSpaceOnUse">
<stop stop-color="#3A9B8D"/>
<stop offset="1" stop-color="#434395"/>
</linearGradient>
<clipPath id="clip0_6_59">
<rect width="28" height="31" fill="white" transform="translate(0.200012)"/>
</clipPath>
</defs>
</svg>
