<svg width="29" height="31" viewBox="0 0 29 31" fill="none" xmlns="http://www.w3.org/2000/svg">
<g id="linkedin 1" clip-path="url(#clip0_6_55)">
<path id="Vector" d="M26.4 1.9375H2.39377C1.29377 1.9375 0.400024 2.81543 0.400024 3.89316V27.1068C0.400024 28.1846 1.29377 29.0625 2.39377 29.0625H26.4C27.5 29.0625 28.4 28.1846 28.4 27.1068V3.89316C28.4 2.81543 27.5 1.9375 26.4 1.9375ZM8.86252 25.1875H4.71252V12.2426H8.86877V25.1875H8.86252ZM6.78752 10.4746C5.45627 10.4746 4.38127 9.42715 4.38127 8.14355C4.38127 6.85996 5.45627 5.8125 6.78752 5.8125C8.11252 5.8125 9.19377 6.85996 9.19377 8.14355C9.19377 9.4332 8.11877 10.4746 6.78752 10.4746ZM24.4188 25.1875H20.2688V18.8906C20.2688 17.3891 20.2375 15.4576 18.1125 15.4576C15.95 15.4576 15.6188 17.0924 15.6188 18.7816V25.1875H11.4688V12.2426H15.45V14.0105H15.5063C16.0625 12.9934 17.4188 11.9217 19.4375 11.9217C23.6375 11.9217 24.4188 14.6039 24.4188 18.0914V25.1875Z" fill="url(#paint0_linear_6_55)"/>
</g>
<defs>
<linearGradient id="paint0_linear_6_55" x1="14.4" y1="1.9375" x2="14.4" y2="29.0625" gradientUnits="userSpaceOnUse">
<stop stop-color="#3A9B8D"/>
<stop offset="1" stop-color="#434395"/>
</linearGradient>
<clipPath id="clip0_6_55">
<rect width="28" height="31" fill="white" transform="translate(0.400024)"/>
</clipPath>
</defs>
</svg>
