<svg width="29" height="31" viewBox="0 0 29 31" fill="none" xmlns="http://www.w3.org/2000/svg">
<g id="tiktok 1" clip-path="url(#clip0_6_61)">
<path id="Vector" d="M28.6 12.7094C25.8484 12.7158 23.1643 11.8845 20.9268 10.3329V21.1539C20.9261 23.158 20.2938 25.1142 19.1144 26.7608C17.935 28.4074 16.2649 29.666 14.3272 30.3682C12.3896 31.0704 10.2768 31.1829 8.27139 30.6905C6.266 30.1981 4.46358 29.1243 3.10514 27.6127C1.7467 26.1012 0.896995 24.2239 0.669638 22.2319C0.442281 20.2398 0.848111 18.2281 1.83286 16.4655C2.81762 14.703 4.33435 13.2737 6.18026 12.3687C8.02617 11.4638 10.1133 11.1264 12.1625 11.4016V16.8441C11.2248 16.5584 10.2178 16.567 9.28544 16.8687C8.35307 17.1705 7.54295 17.7499 6.97078 18.5242C6.39861 19.2986 6.09364 20.2283 6.09943 21.1806C6.10522 22.1329 6.42147 23.059 7.00302 23.8268C7.58457 24.5946 8.40167 25.1647 9.33765 25.4558C10.2736 25.7468 11.2806 25.744 12.2148 25.4475C13.149 25.1511 13.9626 24.5763 14.5394 23.8052C15.1163 23.0341 15.4269 22.1062 15.4269 21.1539V0H20.9268C20.923 0.449948 20.9619 0.899283 21.0431 1.34232C21.2342 2.33135 21.6316 3.2722 22.2109 4.10734C22.7903 4.94248 23.5394 5.65434 24.4125 6.19939C25.6546 6.99504 27.1109 7.41911 28.6 7.41881V12.7094Z" fill="url(#paint0_linear_6_61)"/>
</g>
<defs>
<linearGradient id="paint0_linear_6_61" x1="14.604" y1="0" x2="14.604" y2="30.9922" gradientUnits="userSpaceOnUse">
<stop stop-color="#3A9B8D"/>
<stop offset="1" stop-color="#434395"/>
</linearGradient>
<clipPath id="clip0_6_61">
<rect width="28" height="31" fill="white" transform="translate(0.599976)"/>
</clipPath>
</defs>
</svg>
